<svg width="36" height="35" viewBox="0 0 36 35" fill="none" xmlns="http://www.w3.org/2000/svg">
<g clip-path="url(#clip0_37_418)">
<path d="M33.1271 32.1007C32.4694 32.1007 31.9312 31.7686 31.5126 31.1044C31.1139 30.469 30.7951 29.6315 30.5559 28.5918C30.3167 27.5521 30.1373 26.4546 30.0177 25.2994C29.918 24.1441 29.8582 23.0467 29.8383 22.007C29.8185 20.9673 29.8084 20.1297 29.8084 19.4944C29.8084 17.646 29.8484 15.7977 29.928 13.9493C30.0278 12.0721 30.1871 10.2237 30.4064 8.40425C29.968 9.50169 29.5793 10.7147 29.2404 12.0432C28.9015 13.3428 28.5726 14.6713 28.2537 16.0287C27.9548 17.3572 27.606 18.6135 27.2073 19.7976C27.0877 20.1442 26.8885 20.664 26.6093 21.3572C26.3503 22.0503 26.0513 22.7723 25.7124 23.5232C25.3735 24.2452 25.0247 24.8662 24.666 25.386C24.3072 25.877 23.9884 26.1225 23.7092 26.1225C22.892 26.1225 22.2342 25.7326 21.7359 24.9528C21.2376 24.173 20.8589 23.1911 20.5998 22.007C20.3407 20.8229 20.1613 19.6243 20.0617 18.4114C19.9819 17.1695 19.9421 16.1154 19.9421 15.2489C19.9421 13.9782 19.9819 12.7074 20.0617 11.4367C20.1613 10.166 20.2111 8.90965 20.2111 7.6678C20.2111 7.0324 20.1713 6.41149 20.0916 5.805C20.0118 5.19851 19.972 4.60644 19.972 4.02885C19.972 3.42236 20.1613 3.1191 20.54 3.1191C20.8988 3.1191 21.138 3.35015 21.2576 3.81224C21.3971 4.27432 21.4669 4.79417 21.4669 5.37179C21.4868 5.92051 21.4968 6.38259 21.4968 6.75806C21.4968 8.25984 21.427 9.76161 21.2875 11.2634C21.1479 12.7652 21.0782 14.2814 21.0782 15.8121C21.0782 16.3897 21.1081 17.1839 21.1679 18.1948C21.2277 19.1767 21.3373 20.1731 21.4968 21.1839C21.6762 22.1947 21.9253 23.0611 22.2442 23.7831C22.583 24.4763 23.0216 24.8228 23.5597 24.8228C23.7989 24.8228 24.078 24.5918 24.3969 24.1297C24.7157 23.6676 25.0348 23.1189 25.3536 22.4835C25.6725 21.8193 25.9516 21.1839 26.1908 20.5774C26.4498 19.9709 26.6292 19.5088 26.7289 19.1911C27.4266 17.0251 28.0744 14.8302 28.6723 12.6064C29.2901 10.3826 29.8484 8.12987 30.3466 5.84832C30.5458 5.01077 30.7054 4.14436 30.825 3.24906C30.9644 2.35377 31.134 1.50179 31.3332 0.693131C31.433 0.231044 31.6322 0 31.9312 0C32.1902 0 32.3897 0.129963 32.5292 0.389888C32.6887 0.620934 32.7684 0.909738 32.7684 1.2563C32.7684 1.71839 32.6985 2.33933 32.5591 3.1191C32.4395 3.86998 32.3098 4.62089 32.1704 5.37179C32.0309 6.12266 31.9212 6.75806 31.8415 7.27791C31.5227 9.41505 31.2634 11.5667 31.0642 13.7327C30.8848 15.8988 30.7951 18.0792 30.7951 20.2742C30.7951 20.7362 30.8051 21.386 30.825 22.2236C30.8649 23.0611 30.9247 23.9708 31.0044 24.9528C31.084 25.9347 31.2137 26.8733 31.393 27.7687C31.5923 28.6639 31.8415 29.4004 32.1405 29.978C32.4395 30.5267 32.8181 30.8011 33.2766 30.8011C33.6354 30.8011 33.9145 30.6134 34.1138 30.2379C34.313 29.8625 34.4725 29.487 34.5921 29.1116C34.7316 28.7361 34.8811 28.5484 35.0406 28.5484C35.1602 28.5484 35.22 28.6495 35.22 28.8517C35.22 29.2849 35.1105 29.747 34.8911 30.2379C34.6718 30.7578 34.4027 31.191 34.0839 31.5376C33.765 31.913 33.446 32.1007 33.1271 32.1007ZM6.5477 34.44C5.29198 34.44 4.24555 34.0213 3.40837 33.1838C2.57123 32.3751 1.90351 31.3065 1.40521 29.978C0.906911 28.6495 0.548133 27.2055 0.32888 25.6459C0.109627 24.0864 0 22.5557 0 21.0539C0 19.8698 0.0896943 18.5702 0.269083 17.1551C0.448472 15.711 0.717555 14.2814 1.07633 12.8663C1.45504 11.4511 1.93341 10.1515 2.51145 8.96742C3.08947 7.78331 3.76715 6.8447 4.5445 6.15157C5.3418 5.42953 6.24872 5.06855 7.26526 5.06855C7.98281 5.06855 8.58077 5.34289 9.05914 5.89164C9.55744 6.41149 9.95609 7.09017 10.255 7.92772C10.574 8.76524 10.7932 9.66055 10.9128 10.6136C11.0523 11.5667 11.1221 12.462 11.1221 13.2995C11.1221 13.5594 11.0922 14.0215 11.0324 14.6858C10.9726 15.3211 10.8829 16.0143 10.7633 16.7652C10.6437 17.4872 10.4943 18.1081 10.3149 18.628C10.1355 19.1478 9.92619 19.4077 9.687 19.4077C9.62721 19.4077 9.57736 19.3644 9.53751 19.2778C9.51757 19.1911 9.50761 19.1189 9.50761 19.0612C9.50761 18.9745 9.58734 18.6857 9.7468 18.1948C9.90624 17.7038 10.0557 17.0828 10.1953 16.332C10.3547 15.5811 10.4345 14.8013 10.4345 13.9926C10.4345 13.3861 10.3846 12.6641 10.285 11.8266C10.2052 10.989 10.0557 10.166 9.83647 9.35731C9.61723 8.51976 9.31825 7.84108 8.93953 7.32123C8.58077 6.77248 8.12233 6.49813 7.56421 6.49813C6.64735 6.49813 5.82017 6.83025 5.08269 7.49451C4.36514 8.15874 3.73728 9.03961 3.19909 10.1371C2.66092 11.2345 2.21246 12.4331 1.85368 13.7327C1.51484 15.0323 1.25572 16.3464 1.07633 17.6749C0.896944 18.9745 0.807249 20.1731 0.807249 21.2705C0.807249 22.4546 0.886977 23.7542 1.04643 25.1694C1.20589 26.5845 1.47498 27.9275 1.85368 29.1982C2.25233 30.469 2.80046 31.5087 3.49809 32.3173C4.1957 33.126 5.07272 33.5303 6.12913 33.5303C7.10579 33.5303 8.03263 33.2126 8.90965 32.5773C9.78665 31.9419 10.6039 31.0899 11.3613 30.0213C12.1387 28.9816 12.8363 27.8264 13.4542 26.5557C14.092 25.2849 14.6501 23.9853 15.1285 22.6568C15.6068 21.3283 15.9955 20.0864 16.2945 18.9312L18.4771 10.6569L18.8956 9.05406C18.9355 8.90965 18.9455 8.76524 18.9255 8.62085C18.9255 8.47644 18.9654 8.40425 19.0451 8.40425C19.1647 8.40425 19.2544 8.47644 19.3142 8.62085C19.374 8.76524 19.4039 8.90965 19.4039 9.05406L18.7162 11.8699C18.4372 13.0829 18.1581 14.3103 17.8791 15.5522C17.62 16.7652 17.3409 17.9782 17.0419 19.1911C16.743 20.3752 16.3443 21.6604 15.846 23.0467C15.3676 24.4041 14.7996 25.7614 14.1418 27.1188C13.4841 28.4473 12.7565 29.6603 11.9593 30.7578C11.162 31.8841 10.3049 32.7794 9.38802 33.4437C8.49108 34.108 7.54429 34.44 6.5477 34.44Z" fill="#EF7E4D"/>
</g>
<defs>
<clipPath id="clip0_37_418">
<rect width="36" height="35" fill="white"/>
</clipPath>
</defs>
</svg>
