<svg width="420" height="227" viewBox="0 0 420 227" fill="none" xmlns="http://www.w3.org/2000/svg">
<g clip-path="url(#clip0_37_420)">
<mask id="mask0_37_420" style="mask-type:luminance" maskUnits="userSpaceOnUse" x="0" y="-2" width="420" height="227">
<path d="M419.76 -2H0V224.23H419.76V-2Z" fill="white"/>
</mask>
<g mask="url(#mask0_37_420)">
<mask id="mask1_37_420" style="mask-type:alpha" maskUnits="userSpaceOnUse" x="0" y="-2" width="420" height="227">
<path d="M419.76 -2H0V224.23H419.76V-2Z" fill="#D9D9D9"/>
</mask>
<g mask="url(#mask1_37_420)">
<path d="M225.324 113.692C221.962 113.692 219.211 112.537 217.072 110.227C215.034 108.017 213.404 105.105 212.181 101.489C210.958 97.8739 210.041 94.0576 209.43 90.0402C208.921 86.0229 208.615 82.2066 208.513 78.5911C208.411 74.9756 208.36 72.0631 208.36 69.8536C208.36 63.4259 208.564 56.9985 208.971 50.5708C209.481 44.0428 210.296 37.6152 211.417 31.288C209.175 35.1043 207.188 39.3224 205.456 43.9423C203.724 48.4617 202.043 53.0816 200.413 57.8018C198.885 62.4218 197.101 66.7905 195.064 70.9081C194.452 72.1133 193.433 73.921 192.007 76.3314C190.683 78.7417 189.154 81.2526 187.422 83.8637C185.69 86.3746 183.907 88.5338 182.073 90.3415C180.239 92.0488 178.609 92.9025 177.182 92.9025C173.005 92.9025 169.643 91.5467 167.096 88.8351C164.548 86.1234 162.613 82.7087 161.288 78.5911C159.963 74.4735 159.046 70.3055 158.537 66.0874C158.129 61.7688 157.926 58.1031 157.926 55.0902C157.926 50.6713 158.129 46.2521 158.537 41.8333C159.046 37.4144 159.301 33.0456 159.301 28.727C159.301 26.5174 159.097 24.3582 158.69 22.2492C158.282 20.1401 158.079 18.0813 158.079 16.0727C158.079 13.9636 159.046 12.9091 160.982 12.9091C162.816 12.9091 164.039 13.7125 164.65 15.3194C165.364 16.9263 165.72 18.7341 165.72 20.7427C165.822 22.6509 165.873 24.2577 165.873 25.5634C165.873 30.7859 165.516 36.0082 164.803 41.2307C164.09 46.4532 163.733 51.7258 163.733 57.0486C163.733 59.0571 163.886 61.8192 164.192 65.3342C164.497 68.7489 165.058 72.2138 165.873 75.7288C166.79 79.2438 168.063 82.2567 169.694 84.7676C171.426 87.178 173.667 88.3831 176.418 88.3831C177.641 88.3831 179.067 87.5798 180.698 85.9728C182.328 84.3658 183.958 82.4578 185.588 80.2482C187.219 77.9384 188.645 75.7288 189.867 73.6197C191.192 71.5107 192.109 69.9037 192.618 68.799C196.184 61.2667 199.496 53.6338 202.553 45.9007C205.711 38.1676 208.564 30.334 211.111 22.3998C212.13 19.4873 212.945 16.4744 213.556 13.361C214.27 10.2476 215.136 7.28493 216.155 4.47285C216.664 2.86594 217.683 2.0625 219.211 2.0625C220.536 2.0625 221.555 2.51444 222.268 3.41832C223.083 4.22176 223.49 5.22608 223.49 6.43126C223.49 8.0382 223.134 10.1974 222.421 12.9091C221.809 15.5203 221.147 18.1315 220.434 20.7427C219.721 23.3539 219.16 25.5634 218.753 27.3712C217.122 34.803 215.798 42.2852 214.779 49.8175C213.862 57.3499 213.404 64.9323 213.404 72.5652C213.404 74.1722 213.454 76.4319 213.556 79.3443C213.76 82.2567 214.066 85.4203 214.473 88.8351C214.881 92.2498 215.543 95.5137 216.46 98.627C217.479 101.741 218.753 104.302 220.281 106.31C221.809 108.218 223.745 109.172 226.089 109.172C227.923 109.172 229.349 108.52 230.368 107.214C231.387 105.908 232.202 104.603 232.813 103.297C233.526 101.991 234.291 101.339 235.106 101.339C235.717 101.339 236.023 101.69 236.023 102.393C236.023 103.9 235.462 105.507 234.341 107.214C233.221 109.022 231.845 110.528 230.215 111.733C228.585 113.039 226.955 113.692 225.324 113.692ZM89.4574 121.827C83.0385 121.827 77.6894 120.37 73.4101 117.458C69.1308 114.646 65.7176 110.93 63.1704 106.31C60.6231 101.69 58.7891 96.6687 57.6684 91.2454C56.5477 85.8221 55.9873 80.4994 55.9873 75.2769C55.9873 71.1593 56.4458 66.6399 57.3628 61.7186C58.2797 56.6972 59.6552 51.7258 61.4892 46.8046C63.4252 41.8834 65.8705 37.364 68.8251 33.2464C71.7798 29.1288 75.2441 25.8647 79.2177 23.4543C83.2933 20.9436 87.9291 19.6882 93.1254 19.6882C96.7933 19.6882 99.85 20.6423 102.295 22.5505C104.842 24.3582 106.88 26.7185 108.408 29.6309C110.039 32.5433 111.159 35.6567 111.771 38.971C112.484 42.2852 112.84 45.3987 112.84 48.3111C112.84 49.215 112.688 50.8219 112.382 53.1318C112.076 55.3413 111.618 57.7517 111.006 60.3628C110.395 62.8737 109.631 65.0329 108.714 66.8406C107.797 68.6484 106.727 69.5523 105.504 69.5523C105.199 69.5523 104.944 69.4016 104.74 69.1003C104.638 68.799 104.587 68.5479 104.587 68.3471C104.587 68.0458 104.995 67.0414 105.81 65.3342C106.625 63.6269 107.389 61.4675 108.103 58.8564C108.918 56.2452 109.325 53.5336 109.325 50.7214C109.325 48.6124 109.07 46.1015 108.561 43.1891C108.153 40.2767 107.389 37.4144 106.269 34.6022C105.148 31.6898 103.62 29.3296 101.684 27.5218C99.85 25.6135 97.5066 24.6595 94.6537 24.6595C89.9668 24.6595 85.7386 25.8146 81.9686 28.1244C78.3007 30.4342 75.0912 33.4976 72.3403 37.3139C69.5893 41.1302 67.2968 45.2981 65.4628 49.8175C63.7308 54.3369 62.4062 58.9065 61.4892 63.5264C60.5722 68.0458 60.1137 72.2138 60.1137 76.0301C60.1137 80.1477 60.5214 84.6671 61.3364 89.5883C62.1514 94.5095 63.5269 99.18 65.4628 103.598C67.5005 108.017 70.3026 111.633 73.8686 114.445C77.4346 117.257 81.9178 118.663 87.3178 118.663C92.3103 118.663 97.0481 117.558 101.531 115.349C106.014 113.139 110.191 110.177 114.063 106.461C118.037 102.845 121.603 98.828 124.761 94.409C128.022 89.9901 130.874 85.4707 133.32 80.8508C135.765 76.2309 137.752 71.9125 139.28 67.8952L150.437 39.1216L152.577 33.5477C152.78 33.0456 152.831 32.5433 152.729 32.0412C152.729 31.5391 152.933 31.288 153.341 31.288C153.952 31.288 154.411 31.5391 154.716 32.0412C155.022 32.5433 155.175 33.0456 155.175 33.5477L151.66 43.3397C150.233 47.5578 148.807 51.8261 147.38 56.1447C146.056 60.3628 144.629 64.5809 143.101 68.799C141.573 72.9166 139.535 77.3859 136.988 82.2066C134.542 86.9268 131.639 91.6472 128.276 96.3674C124.914 100.987 121.195 105.205 117.12 109.022C113.044 112.939 108.663 116.052 103.976 118.362C99.3915 120.672 94.5517 121.827 89.4574 121.827ZM242.711 108.72C240.775 108.72 239.145 108.017 237.821 106.611C236.598 105.205 235.63 103.498 234.917 101.489C234.204 99.38 233.694 97.2713 233.389 95.1622C233.185 93.0532 233.083 91.2955 233.083 89.8896C233.083 88.3831 233.236 85.9728 233.542 82.6586C233.949 79.2438 234.56 75.4776 235.375 71.36C236.19 67.2424 237.209 63.2752 238.432 59.4589C239.655 55.5421 241.081 52.278 242.711 49.6669C244.443 47.0558 246.43 45.6496 248.672 45.4488C248.978 44.5449 249.436 43.7917 250.047 43.1891C250.659 42.486 251.474 42.1346 252.493 42.1346C254.53 42.1346 256.313 42.9883 257.842 44.6956C259.37 46.4028 260.644 48.5119 261.663 51.0227C262.681 53.5336 263.446 55.9941 263.956 58.4044C264.567 60.8148 264.873 62.7732 264.873 64.2796C264.873 68.8996 264.415 73.4691 263.497 77.9885L264.72 78.1391C267.674 78.1391 269.967 77.6872 271.598 76.7833C273.226 75.8794 274.501 75.0257 275.418 74.2223C276.335 73.3184 277.1 72.8665 277.711 72.8665C278.322 72.8665 278.628 73.2179 278.628 73.921C278.628 75.1262 277.964 76.2309 276.641 77.2353C275.418 78.1391 273.89 78.9929 272.056 79.7963C270.222 80.4994 268.438 81.0014 266.707 81.3027C264.973 81.604 263.65 81.6541 262.732 81.4534C262.223 83.5624 261.357 86.1736 260.134 89.287C259.014 92.2999 257.587 95.3129 255.855 98.326C254.225 101.238 252.289 103.699 250.047 105.708C247.806 107.716 245.36 108.72 242.711 108.72ZM259.37 74.9756C259.981 71.4606 260.287 67.8952 260.287 64.2796C260.287 63.4763 260.083 62.1205 259.676 60.2122C259.37 58.2036 258.861 56.0946 258.147 53.885C257.536 51.6754 256.772 49.7674 255.855 48.1604C254.938 46.5534 253.97 45.7501 252.951 45.7501C252.442 45.7501 252.034 46.1519 251.728 46.9553C251.525 47.6584 251.372 48.4617 251.27 49.3656C251.27 50.2695 251.27 50.8721 251.27 51.1734C251.27 55.1907 251.881 59.4088 253.104 63.8277C254.429 68.1463 256.517 71.8621 259.37 74.9756ZM243.17 104.804C244.698 104.804 246.277 103.799 247.908 101.791C249.538 99.682 251.066 97.1708 252.493 94.2584C254.021 91.2454 255.294 88.3831 256.313 85.6715C257.332 82.9598 257.995 80.9513 258.3 79.6456C254.429 77.0345 251.525 73.5192 249.589 69.1003C247.755 64.6814 246.838 60.162 246.838 55.5421C246.838 53.5336 246.991 51.6253 247.296 49.8175C245.157 53.4331 243.374 57.7013 241.947 62.6225C240.521 67.5437 239.451 72.5652 238.738 77.6872C238.126 82.8092 237.821 87.4792 237.821 91.6974C237.821 92.7018 237.923 94.2584 238.126 96.3674C238.432 98.476 238.993 100.435 239.808 102.243C240.623 103.95 241.744 104.804 243.17 104.804ZM288.082 108.72C286.148 108.72 284.517 108.017 283.192 106.611C281.969 105.205 281.002 103.498 280.288 101.489C279.576 99.38 279.065 97.2713 278.76 95.1622C278.557 93.0532 278.454 91.2955 278.454 89.8896C278.454 88.3831 278.607 85.9728 278.912 82.6586C279.321 79.2438 279.932 75.4776 280.746 71.36C281.563 67.2424 282.58 63.2752 283.803 59.4589C285.026 55.5421 286.454 52.278 288.082 49.6669C289.816 47.0558 291.803 45.6496 294.043 45.4488C294.348 44.5449 294.807 43.7917 295.418 43.1891C296.03 42.486 296.846 42.1346 297.864 42.1346C299.903 42.1346 301.684 42.9883 303.213 44.6956C304.741 46.4028 306.016 48.5119 307.033 51.0227C308.053 53.5336 308.817 55.9941 309.326 58.4044C309.937 60.8148 310.243 62.7732 310.243 64.2796C310.243 68.8996 309.784 73.4691 308.867 77.9885L310.09 78.1391C313.047 78.1391 315.339 77.6872 316.968 76.7833C318.599 75.8794 319.871 75.0257 320.788 74.2223C321.705 73.3184 322.469 72.8665 323.081 72.8665C323.692 72.8665 323.998 73.2179 323.998 73.921C323.998 75.1262 323.336 76.2309 322.011 77.2353C320.788 78.1391 319.26 78.9929 317.426 79.7963C315.592 80.4994 313.811 81.0014 312.077 81.3027C310.346 81.604 309.02 81.6541 308.103 81.4534C307.595 83.5624 306.728 86.1736 305.505 89.287C304.385 92.2999 302.96 95.3129 301.226 98.326C299.597 101.238 297.661 103.699 295.418 105.708C293.179 107.716 290.733 108.72 288.082 108.72ZM304.741 74.9756C305.352 71.4606 305.658 67.8952 305.658 64.2796C305.658 63.4763 305.455 62.1205 305.047 60.2122C304.741 58.2036 304.232 56.0946 303.518 53.885C302.907 51.6754 302.143 49.7674 301.226 48.1604C300.309 46.5534 299.342 45.7501 298.322 45.7501C297.814 45.7501 297.405 46.1519 297.099 46.9553C296.897 47.6584 296.744 48.4617 296.641 49.3656C296.641 50.2695 296.641 50.8721 296.641 51.1734C296.641 55.1907 297.252 59.4088 298.475 63.8277C299.8 68.1463 301.89 71.8621 304.741 74.9756ZM288.541 104.804C290.069 104.804 291.65 103.799 293.279 101.791C294.91 99.682 296.438 97.1708 297.864 94.2584C299.392 91.2454 300.667 88.3831 301.684 85.6715C302.704 82.9598 303.366 80.9513 303.671 79.6456C299.8 77.0345 296.897 73.5192 294.96 69.1003C293.126 64.6814 292.209 60.162 292.209 55.5421C292.209 53.5336 292.362 51.6253 292.667 49.8175C290.528 53.4331 288.746 57.7013 287.318 62.6225C285.893 67.5437 284.823 72.5652 284.109 77.6872C283.497 82.8092 283.192 87.4792 283.192 91.6974C283.192 92.7018 283.295 94.2584 283.497 96.3674C283.803 98.476 284.364 100.435 285.179 102.243C285.995 103.95 287.115 104.804 288.541 104.804ZM325.355 106.913C324.641 106.913 324.082 106.662 323.674 106.159C323.368 105.557 323.215 104.904 323.215 104.201C323.215 98.577 323.521 92.9527 324.132 87.3286C324.846 81.604 325.202 75.9296 325.202 70.3055C325.202 69.7029 325.152 68.5479 325.049 66.8406C325.049 65.0329 324.946 63.1246 324.744 61.1161C324.641 59.007 324.438 57.1491 324.132 55.5421C323.929 53.8349 323.624 52.7804 323.215 52.3785C322.807 52.0772 322.401 51.7258 321.993 51.324C321.687 50.9222 321.534 50.4201 321.534 49.8175C321.534 49.215 321.79 48.763 322.298 48.4617C322.91 48.0599 323.521 47.8591 324.132 47.8591C325.863 47.8591 327.086 48.6625 327.8 50.2695C328.614 51.776 329.126 53.6338 329.328 55.8434C329.634 58.053 329.787 60.162 329.787 62.1706C329.787 71.6112 329.481 81.102 328.87 90.6428C329.278 89.5382 330.093 87.5798 331.315 84.7676C332.538 81.9554 334.016 78.7919 335.747 75.2769C337.479 71.7618 339.263 68.3972 341.096 65.1835C343.033 61.8693 344.815 59.1576 346.446 57.0486C348.077 54.839 349.399 53.7344 350.419 53.7344C351.845 53.7344 352.865 54.6382 353.476 56.446C354.19 58.1533 354.546 59.5595 354.546 60.6641C354.546 65.284 354.29 69.9037 353.782 74.5236C353.373 79.1435 353.17 83.8136 353.17 88.5338C353.17 89.1364 353.22 90.2914 353.323 91.9987C353.526 93.6056 353.832 95.1622 354.24 96.6687C354.749 98.075 355.513 98.778 356.533 98.778C357.347 98.778 358.417 97.8739 359.742 96.0661C361.067 94.2584 362.443 92.1493 363.868 89.739C365.294 87.2281 366.569 84.8681 367.689 82.6586C368.809 80.449 369.573 78.8924 369.982 77.9885C370.084 77.7877 370.185 77.5867 370.287 77.3859C370.39 77.0846 370.543 76.934 370.746 76.934C371.254 76.934 371.56 77.3358 371.663 78.1391C371.766 78.8423 371.816 79.2942 371.816 79.495C371.816 80.4994 371.254 82.2567 370.135 84.7676C369.015 87.2785 367.586 89.9397 365.855 92.7519C364.224 95.564 362.493 97.9744 360.659 99.983C358.928 101.991 357.347 102.996 355.921 102.996C353.884 102.996 352.356 102.193 351.336 100.586C350.419 98.979 349.808 97.1708 349.502 95.1622C349.197 93.0532 349.044 91.2955 349.044 89.8896C349.044 86.5754 349.197 83.2611 349.502 79.9469C349.911 76.6327 350.114 73.3184 350.114 70.0042C350.114 69.7029 350.063 68.9497 349.961 67.7445C349.961 66.5393 349.911 65.3843 349.808 64.2796C349.705 63.175 349.452 62.6225 349.044 62.6225C348.024 62.6225 346.701 63.8778 345.07 66.3887C343.542 68.8996 341.861 72.0631 340.027 75.8794C338.295 79.6957 336.562 83.6629 334.83 87.7805C333.099 91.7979 331.571 95.4134 330.245 98.627C329.023 101.841 328.156 104 327.647 105.105C327.444 105.507 327.139 105.908 326.73 106.31C326.425 106.712 325.966 106.913 325.355 106.913Z" fill="#EF7E4D"/>
<path d="M76.5843 219.555C73.5978 219.555 70.6555 218.689 67.757 216.957C64.8584 215.313 62.0476 213.148 59.3249 210.464C56.6018 207.693 54.0108 204.75 51.5515 201.633C49.092 198.516 46.7645 195.486 44.5687 192.542C42.4607 189.599 40.5282 187.131 38.7716 185.14C38.1566 184.88 37.3224 184.577 36.2684 184.231C35.2144 183.798 34.4676 183.365 34.0286 182.932C33.2381 182.413 32.3596 181.59 31.3936 180.465C30.515 179.252 30.0761 178.17 30.0761 177.218C30.0761 176.265 30.5591 175.659 31.5253 175.4C32.4913 175.054 33.3258 174.88 34.0286 174.88C35.6974 174.88 37.1906 175.4 38.5081 176.439C39.9134 177.391 41.0114 178.473 41.8019 179.685C43.91 179.166 46.545 178.213 49.707 176.828C52.869 175.356 56.1628 173.582 59.5884 171.504C63.1017 169.426 66.3514 167.175 69.338 164.751C72.3243 162.24 74.7398 159.729 76.5843 157.218C78.5166 154.621 79.4828 152.11 79.4828 149.686C79.4828 146.656 78.6043 144.058 76.8478 141.894C75.1788 139.729 72.983 137.954 70.2602 136.569C67.5372 135.097 64.5509 133.972 61.3011 133.193C58.1391 132.413 55.0208 131.894 51.9468 131.634C48.8725 131.288 46.1935 131.115 43.91 131.115C41.5384 131.115 38.4201 131.418 34.5556 132.024C30.7786 132.543 26.826 133.366 22.6979 134.491C18.5697 135.53 14.8367 136.872 11.499 138.517C8.24917 140.162 5.96549 142.067 4.64798 144.231C4.56013 144.491 4.42837 144.794 4.25272 145.141C3.98922 145.4 3.63787 145.53 3.19871 145.53C2.93521 145.53 2.75953 145.4 2.67171 145.141C2.49603 144.881 2.4082 144.664 2.4082 144.491C2.4082 144.318 2.45211 144.102 2.53995 143.842C2.62778 143.582 2.71561 143.366 2.80346 143.192C3.76962 141.201 5.48239 139.383 7.94176 137.738C10.3133 136.093 13.08 134.621 16.2421 133.323C19.4919 132.024 22.8296 130.898 26.2552 129.946C29.6808 128.994 32.8866 128.301 35.8731 127.868C38.9471 127.349 41.4944 127.089 43.5147 127.089C46.2375 127.089 49.3118 127.349 52.7373 127.868C56.2506 128.301 59.8079 129.037 63.4092 130.076C67.0102 131.115 70.304 132.543 73.2905 134.361C76.3645 136.093 78.8241 138.258 80.6686 140.855C82.5131 143.366 83.4354 146.396 83.4354 149.946C83.4354 153.149 82.4691 156.223 80.5368 159.166C78.6043 162.023 76.101 164.664 73.027 167.088C69.9527 169.512 66.5712 171.72 62.8822 173.711C59.2809 175.616 55.7236 177.218 52.2103 178.517C48.6967 179.815 45.5787 180.768 42.8559 181.374C44.0854 183.365 45.6227 185.833 47.4672 188.776C49.3118 191.633 51.3318 194.62 53.5278 197.737C55.7236 200.854 58.0511 203.797 60.5106 206.568C63.0576 209.252 65.6489 211.46 68.284 213.191C70.919 214.836 73.554 215.659 76.189 215.659C78.6483 215.659 80.6246 215.226 82.1179 214.36C83.6989 213.494 84.9284 212.628 85.8069 211.763C86.6852 210.897 87.2122 210.464 87.3879 210.464C88.0904 210.464 88.4419 210.81 88.4419 211.503C88.4419 212.715 87.6514 213.971 86.0704 215.269C84.5771 216.481 82.9084 217.477 81.0639 218.256C79.2193 219.122 77.7261 219.555 76.5843 219.555ZM29.022 218.126C25.5086 218.126 22.9175 217.217 21.2486 215.399C19.5798 213.581 18.5257 211.33 18.0866 208.646C17.6474 205.875 17.4278 203.105 17.4278 200.334C17.4278 190.897 19.1406 181.937 22.5661 173.452C26.0795 164.967 30.1198 156.742 34.6874 148.777C34.8628 148.431 34.9509 148.127 34.9509 147.868C34.9509 147.435 34.9068 147.175 34.8191 147.089C34.8191 147.002 34.7751 146.959 34.6874 146.959C33.9846 146.959 33.8088 146.656 34.1603 146.05C34.5993 145.444 35.2581 144.751 36.1366 143.972C37.0149 143.106 37.8931 142.37 38.7716 141.764C39.6499 141.158 40.2647 140.855 40.6162 140.855C41.3187 140.855 42.0214 141.115 42.7242 141.634C43.4267 142.067 43.7782 142.673 43.7782 143.452C43.7782 143.798 43.0314 145.141 41.5384 147.478C40.0452 149.816 38.1566 152.889 35.8731 156.699C33.6771 160.508 31.4373 164.837 29.1538 169.686C26.9578 174.447 25.1133 179.512 23.6202 184.88C22.127 190.161 21.3804 195.443 21.3804 200.724C21.3804 202.109 21.5121 203.927 21.7756 206.178C22.127 208.43 22.7418 210.507 23.6202 212.412C24.4985 214.23 25.8599 215.313 27.7045 215.659C28.1435 215.745 28.8023 215.919 29.6808 216.178C30.5591 216.438 31.0421 216.871 31.1301 217.477C30.9543 217.823 30.6468 217.996 30.2078 217.996C29.7685 218.083 29.3733 218.126 29.022 218.126ZM93.4843 216.698C91.1128 216.698 89.2683 215.659 87.9508 213.581C86.7213 211.503 85.8867 208.992 85.4475 206.049C85.0085 203.018 84.7887 200.205 84.7887 197.607C84.7887 196.395 84.7887 195.313 84.7887 194.36C84.8767 193.322 84.9645 192.456 85.0522 191.763H84.657C83.603 191.763 83.076 191.374 83.076 190.594C83.2517 190.161 83.5592 189.815 83.9982 189.555C84.5252 189.209 85.0085 188.993 85.4475 188.906C85.8867 185.096 86.7213 181.2 87.9508 177.218C89.1805 173.235 90.8493 169.642 92.9573 166.439V165.66C92.9573 164.794 93.4843 164.274 94.5383 164.101C94.9776 163.668 95.4168 163.192 95.8558 162.673C96.3828 162.067 96.9539 161.764 97.5686 161.764C98.2714 161.764 98.7984 162.067 99.1496 162.673C99.5889 163.192 99.6329 163.755 99.2814 164.361C100.95 164.707 102.443 165.4 103.761 166.439C105.166 167.391 105.869 168.82 105.869 170.725C105.869 173.235 104.903 175.833 102.97 178.517C101.126 181.114 98.8861 183.495 96.2511 185.659C93.7041 187.737 91.3763 189.296 89.2683 190.335C89.0048 192.412 88.8293 194.534 88.7413 196.698C88.7413 198.776 88.7413 200.854 88.7413 202.932C88.7413 203.971 88.7853 205.269 88.873 206.828C89.0488 208.386 89.444 209.771 90.0588 210.984C90.7615 212.196 91.9033 212.802 93.4843 212.802C95.1533 212.802 96.7781 212.066 98.3591 210.594C100.028 209.122 101.609 207.261 103.102 205.01C104.683 202.672 106.132 200.248 107.45 197.737C108.767 195.226 109.909 192.845 110.875 190.594C111.842 188.343 112.544 186.612 112.983 185.4C113.159 184.967 113.379 184.577 113.642 184.231C113.906 183.798 114.301 183.581 114.828 183.581C115.531 183.581 115.882 184.014 115.882 184.88C115.882 186.265 115.399 188.257 114.433 190.854C113.467 193.365 112.149 196.092 110.48 199.036C108.899 201.979 107.099 204.793 105.078 207.477C103.146 210.161 101.17 212.369 99.1496 214.1C97.1296 215.832 95.2411 216.698 93.4843 216.698ZM89.927 186.309C91.5961 185.27 93.2648 183.971 94.9336 182.413C96.6026 180.854 98.0079 179.079 99.1496 177.088C100.292 175.097 100.862 173.105 100.862 171.114C100.862 170.075 100.335 169.339 99.2814 168.906C98.2274 168.387 97.3051 168.084 96.5146 167.997C94.8458 170.681 93.4406 173.625 92.2986 176.828C91.2445 180.032 90.454 183.192 89.927 186.309ZM118.861 217.087C117.28 217.087 116.489 216.308 116.489 214.75C116.489 213.278 117.016 211.633 118.07 209.815C119.212 207.91 120.574 206.005 122.155 204.101C123.736 202.109 125.317 200.291 126.898 198.646C128.566 197.001 129.928 195.659 130.982 194.62C129.752 194.014 128.215 193.495 126.371 193.062C124.614 192.542 122.813 191.979 120.969 191.374C119.212 190.681 117.719 189.815 116.489 188.776C115.348 187.651 114.777 186.179 114.777 184.361C114.777 182.456 115.479 180.291 116.885 177.867C118.378 175.443 120.266 173.105 122.55 170.854C124.834 168.517 127.161 166.612 129.533 165.14C131.904 163.582 134.012 162.803 135.857 162.803C136.999 162.803 138.097 163.106 139.151 163.712C140.292 164.231 140.863 165.14 140.863 166.439C140.863 166.785 140.776 167.261 140.6 167.867C140.424 168.473 140.117 168.776 139.678 168.776C139.063 168.776 138.536 168.473 138.097 167.867C137.745 167.175 137.306 166.828 136.779 166.828C135.286 166.828 133.485 167.434 131.377 168.647C129.357 169.859 127.381 171.417 125.448 173.322C123.516 175.14 121.891 177.045 120.574 179.036C119.344 181.027 118.729 182.802 118.729 184.361C118.729 185.4 119.344 186.309 120.574 187.088C121.803 187.867 123.253 188.516 124.921 189.036C126.678 189.555 128.391 190.075 130.06 190.594C131.728 191.027 132.958 191.503 133.749 192.023C134.188 191.59 134.935 190.897 135.989 189.945C137.043 188.993 138.228 187.954 139.546 186.828C140.863 185.703 142.049 184.75 143.103 183.971C144.245 183.192 145.035 182.802 145.475 182.802C145.826 182.802 146.002 182.975 146.002 183.322C146.002 183.755 145.562 184.491 144.684 185.529C143.894 186.482 142.884 187.521 141.654 188.646C140.512 189.772 139.414 190.854 138.36 191.893C137.306 192.845 136.56 193.538 136.12 193.971C136.911 195.27 137.306 196.655 137.306 198.127C137.306 199.599 136.647 201.417 135.33 203.581C134.012 205.659 132.344 207.737 130.323 209.815C128.391 211.893 126.371 213.624 124.263 215.009C122.155 216.395 120.354 217.087 118.861 217.087ZM123.867 210.464C124.658 210.464 125.58 210.031 126.634 209.165C127.776 208.3 128.874 207.217 129.928 205.919C130.982 204.62 131.86 203.365 132.563 202.153C133.354 200.854 133.749 199.815 133.749 199.036C133.749 198.17 133.573 197.521 133.222 197.088C132.695 197.607 131.86 198.43 130.718 199.555C129.664 200.681 128.523 201.936 127.293 203.321C126.151 204.62 125.141 205.875 124.263 207.088C123.472 208.213 123.077 209.079 123.077 209.685C123.077 210.204 123.34 210.464 123.867 210.464ZM158.267 214.49C156.335 214.49 154.797 213.841 153.656 212.542C152.514 211.157 151.635 209.469 151.021 207.477C150.494 205.399 150.142 203.365 149.967 201.373C149.791 199.295 149.703 197.607 149.703 196.308C149.703 191.633 149.879 186.915 150.23 182.153C150.669 177.391 151.108 172.673 151.548 167.997C150.054 168.603 148.605 169.296 147.2 170.075C145.882 170.854 144.653 171.85 143.511 173.062C143.335 173.235 143.116 173.408 142.852 173.582C142.676 173.755 142.413 173.841 142.061 173.841C141.447 173.841 140.832 173.538 140.217 172.932C139.69 172.326 139.426 171.72 139.426 171.114C139.426 170.335 139.953 169.556 141.007 168.776C142.061 167.911 143.335 167.132 144.828 166.439C146.409 165.66 147.859 165.01 149.176 164.491C150.581 163.971 151.548 163.625 152.075 163.452C152.162 162.759 152.338 161.46 152.602 159.556C152.953 157.564 153.348 155.357 153.787 152.933C154.227 150.422 154.71 148.041 155.237 145.79C155.851 143.452 156.466 141.548 157.081 140.076C157.696 138.517 158.311 137.738 158.926 137.738C159.54 137.738 160.155 137.954 160.77 138.387C161.385 138.82 161.692 139.34 161.692 139.946C161.692 140.206 161.473 141.288 161.034 143.192C160.594 145.097 160.024 147.348 159.321 149.946C158.706 152.456 158.135 154.837 157.608 157.088C157.169 159.339 156.862 160.898 156.686 161.764C160.551 160.638 164.24 159.729 167.753 159.036C171.354 158.344 175.131 157.997 179.084 157.997C179.435 157.997 180.094 157.997 181.06 157.997C182.026 157.997 182.948 158.041 183.827 158.127C184.793 158.214 185.276 158.387 185.276 158.647C184.398 158.993 183.431 159.253 182.377 159.426C181.411 159.599 180.445 159.729 179.479 159.816C175.263 160.162 171.266 160.941 167.49 162.153C163.8 163.365 160.024 164.707 156.159 166.179C155.544 171.114 155.017 176.136 154.578 181.244C154.139 186.265 153.919 191.244 153.919 196.179C153.919 197.131 153.963 198.43 154.051 200.075C154.139 201.633 154.314 203.235 154.578 204.88C154.841 206.438 155.281 207.78 155.895 208.906C156.51 210.031 157.389 210.594 158.53 210.594C160.024 210.594 161.561 209.771 163.142 208.126C164.723 206.395 166.304 204.317 167.885 201.893C169.466 199.382 170.915 196.871 172.233 194.36C173.55 191.85 174.692 189.729 175.658 187.997C176.712 186.265 177.415 185.356 177.766 185.27V185.659C177.766 186.958 177.327 188.776 176.449 191.114C175.57 193.451 174.385 195.962 172.891 198.646C171.486 201.243 169.905 203.754 168.148 206.178C166.48 208.603 164.767 210.594 163.01 212.152C161.341 213.711 159.76 214.49 158.267 214.49ZM180.705 220.334C179.212 220.334 178.114 219.598 177.411 218.126C176.708 216.741 176.269 215.139 176.093 213.321C175.918 211.503 175.83 210.118 175.83 209.165C175.83 205.875 176.137 202.412 176.752 198.776C177.367 195.053 178.158 191.59 179.124 188.387C179.563 186.915 180.353 184.794 181.495 182.023C182.637 179.166 183.998 176.265 185.58 173.322C187.249 170.378 189.005 167.911 190.85 165.919C192.782 163.841 194.714 162.803 196.647 162.803C198.14 162.803 199.765 163.452 201.521 164.751C203.278 166.049 204.156 167.478 204.156 169.036C204.156 169.642 203.937 170.162 203.498 170.595C203.586 170.508 203.805 170.465 204.156 170.465C205.825 170.465 206.66 171.33 206.66 173.062C206.66 175.054 206.352 177.434 205.737 180.205C205.21 182.975 204.64 185.919 204.025 189.036C203.41 192.066 203.102 195.01 203.102 197.867C203.102 198.906 203.19 200.161 203.366 201.633C203.542 203.018 203.937 204.274 204.552 205.399C205.254 206.525 206.352 207.088 207.846 207.088C209.251 207.088 210.744 206.352 212.325 204.88C213.906 203.408 215.443 201.59 216.936 199.425C218.43 197.261 219.835 195.096 221.152 192.932C222.47 190.768 223.568 188.949 224.446 187.477C225.412 186.006 226.071 185.27 226.422 185.27C227.037 185.27 227.345 185.659 227.345 186.439C227.345 187.477 226.862 188.993 225.895 190.984C225.017 192.889 223.831 195.01 222.338 197.347C220.845 199.599 219.176 201.806 217.332 203.971C215.575 206.049 213.774 207.78 211.93 209.165C210.173 210.464 208.592 211.113 207.187 211.113C204.903 211.113 203.146 210.204 201.917 208.386C200.775 206.482 199.984 204.23 199.545 201.633C199.194 199.036 199.018 196.612 199.018 194.36C199.018 193.581 199.018 192.845 199.018 192.153C199.018 191.46 199.062 190.854 199.15 190.335C198.623 191.547 197.876 193.365 196.91 195.789C195.944 198.127 194.802 200.724 193.485 203.581C192.255 206.352 190.894 209.036 189.4 211.633C187.995 214.144 186.546 216.222 185.053 217.867C183.559 219.511 182.11 220.334 180.705 220.334ZM181.759 214.88C182.901 214.88 184.174 213.841 185.58 211.763C186.985 209.685 188.434 207.044 189.927 203.841C191.508 200.551 193.002 197.044 194.407 193.322C195.812 189.599 197.086 186.092 198.228 182.802C199.457 179.426 200.467 176.655 201.258 174.491C202.048 172.24 202.575 171.028 202.839 170.854L202.048 170.984C201.434 170.984 200.951 170.681 200.599 170.075C200.248 169.382 199.809 168.733 199.282 168.127C198.755 167.521 197.876 167.218 196.647 167.218C195.066 167.218 193.529 168.127 192.035 169.945C190.542 171.763 189.093 173.971 187.688 176.569C186.37 179.079 185.228 181.547 184.262 183.971C183.384 186.395 182.769 188.213 182.417 189.425C180.661 195.399 179.782 201.547 179.782 207.867C179.782 208.213 179.782 208.992 179.782 210.204C179.87 211.33 180.046 212.412 180.309 213.451C180.661 214.404 181.144 214.88 181.759 214.88ZM224.962 213.711C223.557 213.711 222.415 213.148 221.536 212.023C220.746 210.897 220.131 209.512 219.692 207.867C219.253 206.135 218.945 204.49 218.77 202.932C218.682 201.287 218.638 199.988 218.638 199.036C218.638 198.17 218.638 197.304 218.638 196.438C218.726 195.573 218.814 194.707 218.901 193.841C219.253 191.157 219.736 188.516 220.351 185.919C220.966 183.235 221.449 180.551 221.8 177.867C221.976 176.482 222.107 175.14 222.195 173.841C222.283 172.543 222.371 171.201 222.459 169.815C222.547 169.382 222.678 168.993 222.854 168.647C223.03 168.214 223.381 167.997 223.908 167.997C224.874 167.997 225.445 168.43 225.621 169.296C225.884 170.075 226.016 170.811 226.016 171.504C226.016 174.621 225.709 177.694 225.094 180.724C224.479 183.755 223.864 186.785 223.249 189.815C222.634 192.845 222.327 195.919 222.327 199.036C222.327 199.382 222.327 200.161 222.327 201.373C222.415 202.499 222.547 203.754 222.722 205.14C222.898 206.438 223.161 207.564 223.513 208.516C223.952 209.469 224.479 209.945 225.094 209.945C225.884 209.945 226.894 209.036 228.124 207.217C229.441 205.399 230.759 203.235 232.076 200.724C233.482 198.127 234.711 195.746 235.765 193.581C236.908 191.33 237.654 189.815 238.005 189.036C239.235 186.352 240.026 183.885 240.377 181.633C240.816 179.382 241.124 177.304 241.299 175.4C241.475 173.408 241.914 171.46 242.617 169.556C243.056 168.517 243.715 167.997 244.593 167.997C245.91 167.997 246.569 168.776 246.569 170.335C246.569 173.019 246.262 176.265 245.647 180.075C245.032 183.798 244.725 187.477 244.725 191.114V193.971C244.725 194.577 244.725 195.529 244.725 196.828C244.725 198.04 244.813 199.339 244.988 200.724C245.252 202.109 245.603 203.278 246.042 204.23C246.569 205.183 247.316 205.659 248.282 205.659C249.424 205.659 250.566 205.01 251.707 203.711C252.849 202.412 253.903 200.897 254.869 199.166C255.923 197.434 256.802 195.919 257.504 194.62C258.207 193.322 258.734 192.672 259.085 192.672C259.612 192.672 259.876 193.018 259.876 193.711C259.876 194.49 259.437 195.746 258.558 197.477C257.768 199.122 256.714 200.854 255.396 202.672C254.167 204.49 252.849 206.049 251.444 207.347C250.126 208.646 248.985 209.295 248.018 209.295C245.998 209.295 244.461 208.473 243.407 206.828C242.441 205.183 241.738 203.148 241.299 200.724C240.948 198.3 240.772 195.962 240.772 193.711C240.772 191.374 240.772 189.555 240.772 188.257C240.421 189.296 239.85 190.854 239.059 192.932C238.269 194.923 237.346 197.131 236.292 199.555C235.238 201.893 234.097 204.144 232.867 206.308C231.637 208.473 230.32 210.248 228.914 211.633C227.597 213.018 226.279 213.711 224.962 213.711ZM266.056 216.308C265.44 216.308 264.957 216.092 264.607 215.659C264.254 215.226 264.08 214.706 264.08 214.1C264.08 210.81 264.212 207.521 264.475 204.23C264.826 200.854 265.002 197.521 265.002 194.231C265.002 192.066 264.913 189.339 264.739 186.049C264.649 182.672 264.343 179.382 263.816 176.179C263.376 172.889 262.586 170.378 261.444 168.647C261.356 168.473 261.268 168.344 261.18 168.257C261.092 168.084 261.049 167.911 261.049 167.738C261.049 167.218 261.312 166.872 261.839 166.699C262.366 166.439 262.805 166.309 263.157 166.309C264.386 166.309 265.353 167.002 266.056 168.387C266.757 169.772 267.284 171.547 267.637 173.711C267.988 175.876 268.206 178.127 268.296 180.465C268.47 182.716 268.559 184.794 268.559 186.698C268.559 188.516 268.559 189.772 268.559 190.464C268.559 191.33 268.559 192.153 268.559 192.932C268.646 193.711 268.691 194.534 268.691 195.399C269.042 194.187 269.656 192.326 270.536 189.815C271.413 187.304 272.467 184.534 273.698 181.504C274.926 178.387 276.243 175.443 277.65 172.673C279.142 169.815 280.591 167.478 281.998 165.66C283.49 163.841 284.897 162.932 286.214 162.932C287.532 162.932 288.496 163.755 289.113 165.4C289.727 167.045 290.122 168.82 290.298 170.725C290.562 172.629 290.694 174.058 290.694 175.01C290.694 175.616 290.649 176.655 290.562 178.127C290.472 179.512 290.254 180.811 289.903 182.023C289.64 183.235 289.113 183.841 288.322 183.841C287.619 183.841 287.268 183.062 287.268 181.504C287.268 180.811 287.31 180.161 287.4 179.556C287.487 178.95 287.532 178.473 287.532 178.127C287.532 177.694 287.487 176.698 287.4 175.14C287.31 173.495 287.092 171.937 286.741 170.465C286.478 168.993 286.082 168.257 285.555 168.257C285.028 168.257 284.37 168.776 283.579 169.815C282.876 170.768 282.13 171.937 281.339 173.322C280.636 174.621 279.977 175.919 279.363 177.218C278.836 178.43 278.483 179.296 278.309 179.815C276.992 183.019 275.584 186.655 274.093 190.724C272.686 194.793 271.458 198.906 270.404 203.062C269.437 207.131 268.955 210.94 268.955 214.49C268.338 215.702 267.374 216.308 266.056 216.308ZM297.018 220.334C295.524 220.334 294.425 219.598 293.724 218.126C293.02 216.741 292.58 215.139 292.406 213.321C292.23 211.503 292.143 210.118 292.143 209.165C292.143 205.875 292.449 202.412 293.065 198.776C293.679 195.053 294.47 191.59 295.437 188.387C295.874 186.915 296.665 184.794 297.808 182.023C298.949 179.166 300.312 176.265 301.893 173.322C303.561 170.378 305.318 167.911 307.163 165.919C309.094 163.841 311.026 162.803 312.96 162.803C314.451 162.803 316.077 163.452 317.834 164.751C319.589 166.049 320.469 167.478 320.469 169.036C320.469 169.642 320.248 170.162 319.811 170.595C319.898 170.508 320.116 170.465 320.469 170.465C322.137 170.465 322.973 171.33 322.973 173.062C322.973 175.054 322.664 177.434 322.051 180.205C321.524 182.975 320.952 185.919 320.338 189.036C319.721 192.066 319.415 195.01 319.415 197.867C319.415 198.906 319.502 200.161 319.679 201.633C319.853 203.018 320.248 204.274 320.865 205.399C321.566 206.525 322.664 207.088 324.159 207.088C325.563 207.088 327.057 206.352 328.638 204.88C330.219 203.408 331.755 201.59 333.249 199.425C334.741 197.261 336.148 195.096 337.465 192.932C338.783 190.768 339.879 188.949 340.759 187.477C341.724 186.006 342.382 185.27 342.735 185.27C343.349 185.27 343.658 185.659 343.658 186.439C343.658 187.477 343.173 188.993 342.208 190.984C341.328 192.889 340.143 195.01 338.651 197.347C337.157 199.599 335.489 201.806 333.645 203.971C331.887 206.049 330.087 207.78 328.243 209.165C326.485 210.464 324.904 211.113 323.5 211.113C321.215 211.113 319.458 210.204 318.23 208.386C317.086 206.482 316.296 204.23 315.858 201.633C315.505 199.036 315.331 196.612 315.331 194.36C315.331 193.581 315.331 192.845 315.331 192.153C315.331 191.46 315.373 190.854 315.463 190.335C314.936 191.547 314.188 193.365 313.223 195.789C312.256 198.127 311.115 200.724 309.798 203.581C308.567 206.352 307.205 209.036 305.713 211.633C304.306 214.144 302.857 216.222 301.366 217.867C299.871 219.511 298.422 220.334 297.018 220.334ZM298.072 214.88C299.213 214.88 300.485 213.841 301.893 211.763C303.297 209.685 304.746 207.044 306.24 203.841C307.821 200.551 309.313 197.044 310.72 193.322C312.124 189.599 313.397 186.092 314.541 182.802C315.769 179.426 316.78 176.655 317.571 174.491C318.361 172.24 318.888 171.028 319.152 170.854L318.361 170.984C317.745 170.984 317.263 170.681 316.912 170.075C316.559 169.382 316.122 168.733 315.595 168.127C315.068 167.521 314.188 167.218 312.96 167.218C311.379 167.218 309.84 168.127 308.348 169.945C306.854 171.763 305.405 173.971 304.001 176.569C302.683 179.079 301.539 181.547 300.575 183.971C299.695 186.395 299.081 188.213 298.731 189.425C296.973 195.399 296.095 201.547 296.095 207.867C296.095 208.213 296.095 208.992 296.095 210.204C296.182 211.33 296.359 212.412 296.622 213.451C296.973 214.404 297.455 214.88 298.072 214.88ZM341.141 217.217C340.527 217.217 340.045 217.001 339.692 216.568C339.429 216.048 339.297 215.486 339.297 214.88C339.297 210.031 339.56 205.183 340.087 200.334C340.704 195.399 341.01 190.508 341.01 185.659C341.01 185.14 340.967 184.144 340.878 182.672C340.878 181.114 340.791 179.469 340.614 177.737C340.527 175.919 340.351 174.317 340.087 172.932C339.913 171.46 339.65 170.551 339.297 170.205C338.946 169.945 338.596 169.642 338.243 169.296C337.979 168.95 337.848 168.517 337.848 167.997C337.848 167.478 338.069 167.088 338.506 166.828C339.033 166.482 339.56 166.309 340.087 166.309C341.581 166.309 342.635 167.002 343.249 168.387C343.953 169.686 344.393 171.287 344.567 173.192C344.83 175.097 344.962 176.915 344.962 178.646C344.962 186.785 344.699 194.966 344.172 203.191C344.525 202.239 345.226 200.551 346.28 198.127C347.334 195.703 348.609 192.975 350.1 189.945C351.594 186.915 353.131 184.014 354.712 181.244C356.382 178.387 357.919 176.049 359.323 174.231C360.73 172.326 361.871 171.374 362.749 171.374C363.979 171.374 364.857 172.153 365.384 173.711C366 175.183 366.306 176.395 366.306 177.348C366.306 181.33 366.087 185.313 365.647 189.296C365.297 193.278 365.12 197.304 365.12 201.373C365.12 201.893 365.165 202.888 365.252 204.36C365.428 205.745 365.692 207.088 366.042 208.386C366.482 209.598 367.141 210.204 368.019 210.204C368.722 210.204 369.644 209.425 370.785 207.867C371.929 206.308 373.115 204.49 374.343 202.412C375.573 200.248 376.672 198.213 377.636 196.308C378.604 194.404 379.262 193.062 379.613 192.283C379.702 192.109 379.789 191.936 379.876 191.763C379.966 191.503 380.098 191.374 380.271 191.374C380.712 191.374 380.975 191.72 381.062 192.412C381.152 193.018 381.194 193.408 381.194 193.581C381.194 194.447 380.712 195.962 379.744 198.127C378.78 200.291 377.55 202.586 376.055 205.01C374.651 207.434 373.157 209.512 371.576 211.243C370.084 212.975 368.722 213.841 367.492 213.841C365.737 213.841 364.419 213.148 363.539 211.763C362.749 210.378 362.222 208.819 361.958 207.088C361.695 205.269 361.563 203.754 361.563 202.542C361.563 199.685 361.695 196.828 361.958 193.971C362.311 191.114 362.485 188.257 362.485 185.4C362.485 185.14 362.443 184.491 362.353 183.452C362.353 182.413 362.311 181.417 362.222 180.465C362.135 179.512 361.916 179.036 361.563 179.036C360.685 179.036 359.544 180.118 358.137 182.283C356.82 184.447 355.37 187.174 353.789 190.464C352.298 193.755 350.804 197.174 349.31 200.724C347.818 204.187 346.501 207.304 345.357 210.074C344.303 212.845 343.558 214.706 343.118 215.659C342.944 216.005 342.68 216.352 342.327 216.698C342.064 217.044 341.668 217.217 341.141 217.217ZM387.932 214.49C386 214.49 384.461 213.841 383.32 212.542C382.179 211.157 381.299 209.469 380.685 207.477C380.158 205.399 379.808 203.365 379.631 201.373C379.455 199.295 379.368 197.607 379.368 196.308C379.368 191.633 379.544 186.915 379.895 182.153C380.335 177.391 380.772 172.673 381.212 167.997C379.718 168.603 378.269 169.296 376.864 170.075C375.547 170.854 374.316 171.85 373.175 173.062C372.999 173.235 372.78 173.408 372.517 173.582C372.34 173.755 372.077 173.841 371.726 173.841C371.112 173.841 370.496 173.538 369.882 172.932C369.355 172.326 369.091 171.72 369.091 171.114C369.091 170.335 369.618 169.556 370.672 168.776C371.726 167.911 372.999 167.132 374.493 166.439C376.074 165.66 377.523 165.01 378.841 164.491C380.245 163.971 381.212 163.625 381.739 163.452C381.826 162.759 382.003 161.46 382.266 159.556C382.617 157.564 383.012 155.357 383.452 152.933C383.892 150.422 384.374 148.041 384.901 145.79C385.515 143.452 386.132 141.548 386.746 140.076C387.36 138.517 387.976 137.738 388.59 137.738C389.204 137.738 389.821 137.954 390.435 138.387C391.049 138.82 391.357 139.34 391.357 139.946C391.357 140.206 391.138 141.288 390.698 143.192C390.258 145.097 389.689 147.348 388.986 149.946C388.372 152.456 387.8 154.837 387.273 157.088C386.833 159.339 386.527 160.898 386.35 161.764C390.216 160.638 393.905 159.729 397.418 159.036C401.02 158.344 404.796 157.997 408.748 157.997C409.099 157.997 409.757 157.997 410.724 157.997C411.692 157.997 412.614 158.041 413.491 158.127C414.458 158.214 414.941 158.387 414.941 158.647C414.063 158.993 413.096 159.253 412.042 159.426C411.075 159.599 410.111 159.729 409.143 159.816C404.927 160.162 400.93 160.941 397.154 162.153C393.465 163.365 389.689 164.707 385.823 166.179C385.21 171.114 384.683 176.136 384.242 181.244C383.802 186.265 383.584 191.244 383.584 196.179C383.584 197.131 383.628 198.43 383.715 200.075C383.802 201.633 383.979 203.235 384.242 204.88C384.506 206.438 384.946 207.78 385.56 208.906C386.174 210.031 387.054 210.594 388.195 210.594C389.689 210.594 391.225 209.771 392.806 208.126C394.387 206.395 395.968 204.317 397.549 201.893C399.13 199.382 400.58 196.871 401.897 194.36C403.215 191.85 404.356 189.729 405.323 187.997C406.377 186.265 407.08 185.356 407.431 185.27V185.659C407.431 186.958 406.991 188.776 406.113 191.114C405.236 193.451 404.05 195.962 402.556 198.646C401.151 201.243 399.57 203.754 397.813 206.178C396.145 208.603 394.432 210.594 392.675 212.152C391.007 213.711 389.426 214.49 387.932 214.49Z" fill="#EF7E4D"/>
</g>
</g>
</g>
<defs>
<clipPath id="clip0_37_420">
<rect width="420" height="227" fill="white"/>
</clipPath>
</defs>
</svg>
